<svg id="Layer_1" data-name="Layer 1" xmlns="http://www.w3.org/2000/svg" viewBox="0 0 269.46 382.08"><defs><style>.cls-1{fill:#ad1a27;}.cls-2{fill:#fff;}</style></defs><title>AW_logo</title><path class="cls-1" d="M529.29,204l2.52-23.93-25.88-3.62a102.37,102.37,0,0,0-1.74-16.7l24.55-8.91-7.44-22.89-25.09,7.22a101.87,101.87,0,0,0-8.41-14.54l18.81-18.13L490.5,84.6l-20,16.81a102.33,102.33,0,0,0-13.58-9.88l9.8-24.2-22-9.79L433.31,81a101.43,101.43,0,0,0-16.43-3.48L416,51.42H391.93L391,77.52A101.43,101.43,0,0,0,374.6,81L363.18,57.53l-22,9.79,9.8,24.2a102.32,102.32,0,0,0-13.58,9.88l-20-16.81-16.1,17.88,18.81,18.13a101.88,101.88,0,0,0-8.41,14.54l-25.09-7.22-7.44,22.89,24.55,8.91a102.37,102.37,0,0,0-1.74,16.7l-25.88,3.62L278.63,204l26-1.84a101.21,101.21,0,0,0,5.19,16l-22.15,13.82,12,20.84,23.06-12.28A102.58,102.58,0,0,0,334,253l-14.63,21.65,19.47,14.14,16.06-20.59A101.45,101.45,0,0,0,370.28,275l-4.55,25.7,23.54,5,6.3-25.35c2.77.23,5.57.35,8.39.35s5.63-.12,8.39-.35l6.3,25.35,23.54-5L437.64,275A101.45,101.45,0,0,0,453,268.17L469,288.76l19.47-14.14L473.88,253a102.58,102.58,0,0,0,11.24-12.47l23.06,12.28,12-20.84-22.15-13.82a101.21,101.21,0,0,0,5.19-16Z" transform="translate(-268.66 -51.42)"/><path class="cls-2" d="M369.21,216.07l-1.2-6.73c-7.47,5.08-14.5,8.22-24.21,8.22-14,0-21.07-10-21.07-20.63,0-17.64,14.35-26.9,44.54-30.49v-6.58c0-6-4.78-9.27-11.36-9.27-8.67,0-13.45,4.63-17,9.57l-12-9.12c4.78-8.22,17.64-14.5,29-14.2,20.93.45,29.89,8.07,29.89,31.39v36.62a34.47,34.47,0,0,0,1.49,11.21Zm-1.94-37.22c-12.41,2.39-26,4.93-26,15.84,0,5.83,3.74,9.12,9,9.12,5.83,0,13.15-4.93,17-8.22Z" transform="translate(-268.66 -51.42)"/><path class="cls-2" d="M388.33,138.34H406l10.61,48.43h.3l11.21-48.43h17.19L456,186.77h.3l11.06-48.43H485l-20,77.72H448.27l-11.51-48.43h-.3L425.1,216.07H408.36Z" transform="translate(-268.66 -51.42)"/><path class="cls-1" d="M291.76,376H285.1L284,368.41h-8.1L274.72,376h-6.06l6.72-42H285ZM276.7,362.71h6.36l-3.18-21.24Z" transform="translate(-268.66 -51.42)"/><path class="cls-1" d="M308.8,363.85,313.3,334h9.18v42h-6.24V345.91L311.68,376h-6.24l-4.92-29.7V376h-5.76V334h9.18Z" transform="translate(-268.66 -51.42)"/><path class="cls-1" d="M348.64,376H342l-1.14-7.62h-8.1L331.6,376h-6.06l6.72-42h9.66Zm-15.06-13.32h6.36l-3.18-21.24Z" transform="translate(-268.66 -51.42)"/><path class="cls-1" d="M351.7,334h6.6v36h10.86v6H351.7Z" transform="translate(-268.66 -51.42)"/><path class="cls-1" d="M381.94,352.63h9.24v13.32c0,6.72-3.36,10.56-9.84,10.56s-9.84-3.84-9.84-10.56V344.11c0-6.72,3.36-10.56,9.84-10.56s9.84,3.84,9.84,10.56v4.08h-6.24v-4.5c0-3-1.32-4.14-3.42-4.14s-3.42,1.14-3.42,4.14v22.68c0,3,1.32,4.08,3.42,4.08s3.42-1.08,3.42-4.08v-7.74h-3Z" transform="translate(-268.66 -51.42)"/><path class="cls-1" d="M416.74,376h-6.66l-1.14-7.62h-8.1L399.7,376h-6.06l6.72-42H410Zm-15.06-13.32H408l-3.18-21.24Z" transform="translate(-268.66 -51.42)"/><path class="cls-1" d="M433.78,363.85l4.5-29.82h9.18v42h-6.24V345.91L436.66,376h-6.24l-4.92-29.7V376h-5.76V334h9.18Z" transform="translate(-268.66 -51.42)"/><path class="cls-1" d="M473.62,376H467l-1.14-7.62h-8.1L456.58,376h-6.06l6.72-42h9.66Zm-15.06-13.32h6.36l-3.18-21.24Z" transform="translate(-268.66 -51.42)"/><path class="cls-1" d="M472.48,334h20.4v6H486v36h-6.6V340h-6.9Z" transform="translate(-268.66 -51.42)"/><path class="cls-1" d="M502.36,351.73h9.06v6h-9.06V370h11.4v6h-18V334h18v6h-11.4Z" transform="translate(-268.66 -51.42)"/><path class="cls-1" d="M517.84,334h10.44c6.6,0,9.84,3.66,9.84,10.38v21.24c0,6.72-3.24,10.38-9.84,10.38H517.84Zm6.6,6v30h3.72c2.1,0,3.36-1.08,3.36-4.08V344.11c0-3-1.26-4.08-3.36-4.08Z" transform="translate(-268.66 -51.42)"/><path class="cls-1" d="M312.61,410.65,310.21,433h-9.06l-4.68-42h6.42l3.54,33.12L309.61,391H316l3.3,33.36L322.69,391h5.76l-4.68,42H315Z" transform="translate(-268.66 -51.42)"/><path class="cls-1" d="M331.75,391h6.6v42h-6.6Z" transform="translate(-268.66 -51.42)"/><path class="cls-1" d="M343.15,391h10.44c6.6,0,9.84,3.66,9.84,10.38v21.24c0,6.72-3.24,10.38-9.84,10.38H343.15Zm6.6,6v30h3.72c2.1,0,3.36-1.08,3.36-4.08V401.11c0-3-1.26-4.08-3.36-4.08Z" transform="translate(-268.66 -51.42)"/><path class="cls-1" d="M377.53,409.63h9.24v13.32c0,6.72-3.36,10.56-9.84,10.56s-9.84-3.84-9.84-10.56V401.11c0-6.72,3.36-10.56,9.84-10.56s9.84,3.84,9.84,10.56v4.08h-6.24v-4.5c0-3-1.32-4.14-3.42-4.14s-3.42,1.14-3.42,4.14v22.68c0,3,1.32,4.08,3.42,4.08s3.42-1.08,3.42-4.08v-7.74h-3Z" transform="translate(-268.66 -51.42)"/><path class="cls-1" d="M397.63,408.73h9.06v6h-9.06V427H409v6H391V391h18v6h-11.4Z" transform="translate(-268.66 -51.42)"/><path class="cls-1" d="M411.19,391h20.4v6h-6.9v36h-6.6V397h-6.9Z" transform="translate(-268.66 -51.42)"/><path class="cls-1" d="M443.77,391h6.6v42h-6.6Z" transform="translate(-268.66 -51.42)"/><path class="cls-1" d="M461,402.61V433h-5.94V391h8.28l6.78,25.14V391H476v42h-6.78Z" transform="translate(-268.66 -51.42)"/><path class="cls-1" d="M499.93,417.37v5.58c0,6.72-3.36,10.56-9.84,10.56s-9.84-3.84-9.84-10.56V401.11c0-6.72,3.36-10.56,9.84-10.56s9.84,3.84,9.84,10.56v4.08h-6.24v-4.5c0-3-1.32-4.14-3.42-4.14s-3.42,1.14-3.42,4.14v22.68c0,3,1.32,4.08,3.42,4.08s3.42-1.08,3.42-4.08v-6Z" transform="translate(-268.66 -51.42)"/><path class="cls-1" d="M509.95,426.67V433h-6.36v-6.36Z" transform="translate(-268.66 -51.42)"/></svg>